<svg width="34" height="22" viewBox="0 0 34 22" fill="none" xmlns="http://www.w3.org/2000/svg">
<path d="M17.6249 10.4249C18.2634 9.73067 18.7355 8.93356 19.0412 8.03357C19.347 7.13358 19.4999 6.2057 19.4999 5.24995C19.4999 4.29419 19.347 3.36631 19.0412 2.46632C18.7355 1.56633 18.2634 0.769223 17.6249 0.075C18.9422 0.22692 20.036 0.795663 20.9061 1.78123C21.7763 2.7668 22.2114 3.92303 22.2114 5.24995C22.2114 6.57686 21.7763 7.73309 20.9061 8.71866C20.036 9.70423 18.9422 10.273 17.6249 10.4249ZM25.4999 21.9229V18.4038C25.4999 17.586 25.3335 16.808 25.0009 16.0698C24.6682 15.3316 24.1961 14.698 23.5845 14.1692C24.7345 14.5519 25.7932 15.0682 26.7605 15.7182C27.7278 16.3682 28.2114 17.2634 28.2114 18.4038V21.9229H25.4999ZM28.2114 12.0864V9.08644H25.2114V6.83649H28.2114V3.83649H30.4614V6.83649H33.4614V9.08644H30.4614V12.0864H28.2114ZM11.2499 10.4999C9.80188 10.4999 8.56488 9.98691 7.53893 8.96096C6.51298 7.93501 6 6.69801 6 5.24995C6 3.80188 6.51298 2.56488 7.53893 1.53893C8.56488 0.512975 9.80188 0 11.2499 0C12.698 0 13.935 0.512975 14.961 1.53893C15.9869 2.56488 16.4999 3.80188 16.4999 5.24995C16.4999 6.69801 15.9869 7.93501 14.961 8.96096C13.935 9.98691 12.698 10.4999 11.2499 10.4999ZM0 21.9229V18.5884C0 17.8538 0.199518 17.1735 0.598553 16.5475C0.997589 15.9216 1.53076 15.4403 2.19806 15.1038C3.68075 14.3769 5.17642 13.8317 6.68506 13.4682C8.19371 13.1048 9.71534 12.923 11.2499 12.923C12.7846 12.923 14.3062 13.1048 15.8148 13.4682C17.3235 13.8317 18.8191 14.3769 20.3018 15.1038C20.9691 15.4403 21.5023 15.9216 21.9013 16.5475C22.3004 17.1735 22.4999 17.8538 22.4999 18.5884V21.9229H0ZM11.2499 8.24994C12.0749 8.24994 12.7812 7.9562 13.3687 7.3687C13.9562 6.7812 14.2499 6.07494 14.2499 5.24995C14.2499 4.42495 13.9562 3.7187 13.3687 3.1312C12.7812 2.54369 12.0749 2.24995 11.2499 2.24995C10.4249 2.24995 9.71869 2.54369 9.1312 3.1312C8.5437 3.7187 8.24994 4.42495 8.24994 5.24995C8.24994 6.07494 8.5437 6.7812 9.1312 7.3687C9.71869 7.9562 10.4249 8.24994 11.2499 8.24994ZM2.24995 19.673H20.2499V18.5884C20.2499 18.2845 20.162 18.0033 19.986 17.7446C19.81 17.486 19.5711 17.2749 19.2692 17.1114C17.9769 16.4749 16.6591 15.9927 15.316 15.6648C13.9729 15.3369 12.6175 15.173 11.2499 15.173C9.88239 15.173 8.52704 15.3369 7.1839 15.6648C5.84076 15.9927 4.52303 16.4749 3.23073 17.1114C2.9288 17.2749 2.68986 17.486 2.51389 17.7446C2.33793 18.0033 2.24995 18.2845 2.24995 18.5884V19.673Z" fill="#002147"/>
</svg>
