<svg width="19" height="25" viewBox="0 0 19 25" fill="none" xmlns="http://www.w3.org/2000/svg">
<path d="M6.62497 13.7355L7.65862 10.3413L4.93988 8.24516H8.32207L9.37495 4.86536L10.4278 8.24516H13.81L11.0721 10.3413L12.1057 13.7355L9.37495 11.6249L6.62497 13.7355ZM2.5 24.6633V15.7163C1.70833 14.8894 1.09375 13.9334 0.65625 12.8485C0.21875 11.7636 0 10.6057 0 9.37495C0 6.75958 0.908649 4.54325 2.72595 2.72595C4.54325 0.908649 6.75958 0 9.37495 0C11.9903 0 14.2067 0.908649 16.024 2.72595C17.8413 4.54325 18.7499 6.75958 18.7499 9.37495C18.7499 10.6057 18.5312 11.7636 18.0937 12.8485C17.6562 13.9334 17.0416 14.8894 16.2499 15.7163V24.6633L9.37495 22.4759L2.5 24.6633ZM9.37495 16.875C11.4583 16.875 13.2291 16.1458 14.6875 14.6875C16.1458 13.2291 16.875 11.4583 16.875 9.37495C16.875 7.29162 16.1458 5.52079 14.6875 4.06245C13.2291 2.60412 11.4583 1.87495 9.37495 1.87495C7.29162 1.87495 5.52079 2.60412 4.06245 4.06245C2.60412 5.52079 1.87495 7.29162 1.87495 9.37495C1.87495 11.4583 2.60412 13.2291 4.06245 14.6875C5.52079 16.1458 7.29162 16.875 9.37495 16.875ZM4.37495 21.9182L9.37495 20.5769L14.375 21.9182V17.2739C13.6618 17.7387 12.8814 18.1009 12.0336 18.3605C11.1859 18.6201 10.2996 18.7499 9.37495 18.7499C8.45027 18.7499 7.56406 18.6201 6.7163 18.3605C5.86854 18.1009 5.08809 17.7387 4.37495 17.2739V21.9182Z" fill="#D2B48C"/>
</svg>
