<svg width="19" height="24" viewBox="0 0 19 24" fill="none" xmlns="http://www.w3.org/2000/svg">
<path d="M9.37495 16.3941C11.3076 14.6458 12.546 13.421 13.0901 12.7199C13.6341 12.0188 13.9062 11.3196 13.9062 10.6223C13.9062 9.94381 13.6602 9.35959 13.1682 8.86959C12.6763 8.3796 12.0897 8.1346 11.4086 8.1346C11.0031 8.1346 10.6187 8.21463 10.2554 8.37468C9.89204 8.53473 9.59856 8.75599 9.37495 9.03844C9.14899 8.75599 8.85713 8.53473 8.49936 8.37468C8.14159 8.21463 7.75558 8.1346 7.34132 8.1346C6.66344 8.1346 6.0777 8.37939 5.58412 8.86897C5.09053 9.35855 4.84374 9.94283 4.84374 10.6218C4.84374 10.9802 4.89127 11.3102 4.98633 11.612C5.08139 11.9138 5.29052 12.2674 5.61373 12.6729C5.93693 13.0784 6.39511 13.5736 6.98825 14.1585C7.5814 14.7433 8.37697 15.4886 9.37495 16.3941ZM9.37495 23.6778C6.67144 22.9406 4.43307 21.3493 2.65984 18.9038C0.886614 16.4583 0 13.7243 0 10.7019V3.5096L9.37495 0L18.7499 3.5096V10.7019C18.7499 13.7243 17.8633 16.4583 16.0901 18.9038C14.3168 21.3493 12.0785 22.9406 9.37495 23.6778ZM9.37495 21.7019C11.5416 21.0144 13.3333 19.6394 14.75 17.5769C16.1666 15.5144 16.875 13.2227 16.875 10.7019V4.79562L9.37495 1.99514L1.87495 4.79562V10.7019C1.87495 13.2227 2.58329 15.5144 3.99995 17.5769C5.41662 19.6394 7.20829 21.0144 9.37495 21.7019Z" fill="#D2B48C"/>
</svg>
