<svg width="25" height="22" viewBox="0 0 25 22" fill="none" xmlns="http://www.w3.org/2000/svg">
<path d="M3.12495 14.3749C2.25157 14.3749 1.5124 14.0724 0.907438 13.4674C0.302479 12.8625 0 12.1233 0 11.2499C0 10.3765 0.302479 9.63735 0.907438 9.03239C1.5124 8.42743 2.25157 8.12495 3.12495 8.12495V5.38455C3.12495 4.76316 3.34621 4.23122 3.78871 3.78871C4.23122 3.34621 4.76316 3.12495 5.38455 3.12495H9.37495C9.37495 2.25157 9.67743 1.5124 10.2824 0.907438C10.8874 0.302479 11.6265 0 12.4999 0C13.3733 0 14.1125 0.302479 14.7174 0.907438C15.3224 1.5124 15.6249 2.25157 15.6249 3.12495H19.6153C20.2367 3.12495 20.7686 3.34621 21.2111 3.78871C21.6536 4.23122 21.8749 4.76316 21.8749 5.38455V8.12495C22.7482 8.12495 23.4874 8.42743 24.0924 9.03239C24.6973 9.63735 24.9998 10.3765 24.9998 11.2499C24.9998 12.1233 24.6973 12.8625 24.0924 13.4674C23.4874 14.0724 22.7482 14.3749 21.8749 14.3749V19.6153C21.8749 20.2367 21.6536 20.7686 21.2111 21.2111C20.7686 21.6536 20.2367 21.8749 19.6153 21.8749H5.38455C4.76316 21.8749 4.23122 21.6536 3.78871 21.2111C3.34621 20.7686 3.12495 20.2367 3.12495 19.6153V14.3749ZM8.74849 12.1874C9.18212 12.1874 9.55118 12.0356 9.85566 11.7321C10.1601 11.4285 10.3124 11.06 10.3124 10.6263C10.3124 10.1927 10.1606 9.82364 9.85708 9.51916C9.55354 9.21467 9.18495 9.06243 8.75132 9.06243C8.31769 9.06243 7.94864 9.2142 7.64416 9.51774C7.33967 9.82128 7.18743 10.1899 7.18743 10.6235C7.18743 11.0571 7.3392 11.4262 7.64274 11.7307C7.94628 12.0351 8.31487 12.1874 8.74849 12.1874ZM16.2485 12.1874C16.6821 12.1874 17.0512 12.0356 17.3557 11.7321C17.6601 11.4285 17.8124 11.06 17.8124 10.6263C17.8124 10.1927 17.6606 9.82364 17.3571 9.51916C17.0535 9.21467 16.685 9.06243 16.2513 9.06243C15.8177 9.06243 15.4486 9.2142 15.1442 9.51774C14.8397 9.82128 14.6874 10.1899 14.6874 10.6235C14.6874 11.0571 14.8392 11.4262 15.1427 11.7307C15.4463 12.0351 15.8149 12.1874 16.2485 12.1874ZM7.81243 17.1874H17.1874V15.3124H7.81243V17.1874ZM5.38455 19.9999H19.6153C19.7275 19.9999 19.8196 19.9638 19.8917 19.8917C19.9638 19.8196 19.9999 19.7275 19.9999 19.6153V5.38455C19.9999 5.27236 19.9638 5.18021 19.8917 5.10809C19.8196 5.03597 19.7275 4.99991 19.6153 4.99991H5.38455C5.27236 4.99991 5.18021 5.03597 5.10809 5.10809C5.03597 5.18021 4.99991 5.27236 4.99991 5.38455V19.6153C4.99991 19.7275 5.03597 19.8196 5.10809 19.8917C5.18021 19.9638 5.27236 19.9999 5.38455 19.9999Z" fill="#D2B48C"/>
</svg>
