<svg width="32" height="32" viewBox="0 0 32 32" fill="none" xmlns="http://www.w3.org/2000/svg">
<rect width="32" height="32" rx="16" fill="white" fill-opacity="0.1"/>
<g clip-path="url(#clip0_135_841)">
<path d="M20.6667 8H11.3333C9.49267 8 8 9.49267 8 11.3333V20.6667C8 22.5073 9.49267 24 11.3333 24H20.6667C22.508 24 24 22.5073 24 20.6667V11.3333C24 9.49267 22.508 8 20.6667 8ZM13.3333 20.6667H11.3333V13.3333H13.3333V20.6667ZM12.3333 12.488C11.6893 12.488 11.1667 11.9613 11.1667 11.312Cnan nan 11.6893 10.136 12.3333 10.136Cnan nan 13.5 10.6627 13.5 11.312Cnan nan 12.978 12.488 12.3333 12.488ZM21.3333 20.6667H19.3333V16.9307C19.3333 14.6853 16.6667 14.8553 16.6667 16.9307V20.6667H14.6667V13.3333H16.6667V14.51C17.5973 12.786 21.3333 12.6587 21.3333 16.1607V20.6667Z" fill="white"/>
</g>
<defs>
<clipPath id="clip0_135_841">
<rect width="16" height="16" fill="white" transform="translate(8 8)"/>
</clipPath>
</defs>
</svg>
