<svg width="30" height="27" viewBox="0 0 30 27" fill="none" xmlns="http://www.w3.org/2000/svg">
<path d="M14.2499 12.0864L2.24995 4.41335V19.7884C2.24995 19.923 2.29322 20.0336 2.37976 20.1201C2.46631 20.2067 2.57689 20.2499 2.71152 20.2499H16.125V21.3749V22.4999H2.71152C1.95383 22.4999 1.31249 22.2374 0.787493 21.7124C0.262498 21.1874 0 20.5461 0 19.7884V2.71152C0 1.95383 0.262498 1.31249 0.787493 0.787493C1.31249 0.262498 1.95383 0 2.71152 0H25.7884C26.5461 0 27.1874 0.262498 27.7124 0.787493C28.2374 1.31249 28.4999 1.95383 28.4999 2.71152V13.125C28.1595 13.125 27.7994 13.125 27.4196 13.125C27.0398 13.125 26.6499 13.125 26.2499 13.125V4.41335L14.2499 12.0864ZM14.2499 9.74994L26.0192 2.24995H2.48073L14.2499 9.74994ZM24.4615 26.8412L22.8952 25.2749L25.6183 22.4999H18.8365V20.2499H25.6327L22.8577 17.4749L24.4615 15.9086L29.9278 21.3749L24.4615 26.8412ZM2.24995 4.41335V19.7884C2.24995 19.923 2.24995 20.0336 2.24995 20.1201C2.24995 20.2067 2.24995 20.2499 2.24995 20.2499V21.5047C2.24995 19.1778 2.24995 17.1995 2.24995 15.5697C2.24995 13.9399 2.24995 13.125 2.24995 13.125C2.24995 13.125 2.24995 13.136 2.24995 13.1581C2.24995 13.1803 2.24995 13.2307 2.24995 13.3096V4.41335V2.24995V4.41335Z" fill="#10162F"/>
</svg>
