<svg width="32" height="32" viewBox="0 0 32 32" fill="none" xmlns="http://www.w3.org/2000/svg">
<rect width="32" height="32" rx="16" fill="white" fill-opacity="0.1"/>
<path d="M24 11.0379C23.4113 11.2992 22.7787 11.4752 22.1147 11.5545C22.7927 11.1485 23.3133 10.5052 23.558 9.73854C22.924 10.1145 22.2213 10.3879 21.4733 10.5352C20.8753 9.8972 20.0213 9.49854 19.0773 9.49854C16.958 9.49854 15.4007 11.4759 15.8793 13.5285C13.152 13.3919 10.7333 12.0852 9.114 10.0992C8.254 11.5745 8.668 13.5045 10.1293 14.4819C9.592 14.4645 9.08533 14.3172 8.64333 14.0712C8.60733 15.5919 9.69733 17.0145 11.276 17.3312C10.814 17.4565 10.308 17.4859 9.79333 17.3872C10.2107 18.6912 11.4227 19.6399 12.86 19.6665C11.48 20.7485 9.74133 21.2319 8 21.0265C9.45267 21.9579 11.1787 22.5012 13.032 22.5012C19.1267 22.5012 22.57 17.3539 22.362 12.7372C23.0033 12.2739 23.56 11.6959 24 11.0379Z" fill="white"/>
</svg>
